HIERARCHY
ROOT Hips
{
	OFFSET 0.000000 71.427986 0.000000
	CHANNELS 6 Xposition Yposition Zposition Xrotation Yrotation Zrotation
	JOINT Pelvis
	{
		OFFSET 0.000000 0.000000 0.000000
		CHANNELS 3 Xrotation Yrotation Zrotation
		JOINT LeftUpLeg
		{
			OFFSET 6.797100 -2.508499 -1.318700
			CHANNELS 3 Xrotation Yrotation Zrotation
			JOINT LeftLeg
			{
				OFFSET 0.069008 -29.241863 0.690200
				CHANNELS 3 Xrotation Yrotation Zrotation
				JOINT LeftFoot
				{
					OFFSET -0.069008 -29.568123 -0.266800
					CHANNELS 3 Xrotation Yrotation Zrotation
					JOINT LeftToeBase
					{
						OFFSET 3.145500 -8.631000 16.059900
						CHANNELS 3 Xrotation Yrotation Zrotation
						End Site
						{
							OFFSET 0.000000 18.501587 0.000000
						}
					}
				}
			}
			JOINT Left_ShortSleeve
			{
				OFFSET 0.265923 -10.480953 1.153800
				CHANNELS 3 Xrotation Yrotation Zrotation
				End Site
				{
					OFFSET 1.725763 19.823879 0.000000
				}
			}
		}
		JOINT RightUpLeg
		{
			OFFSET -6.797100 -2.508499 -1.318700
			CHANNELS 3 Xrotation Yrotation Zrotation
			JOINT RightLeg
			{
				OFFSET -0.082453 -29.241932 0.688000
				CHANNELS 3 Xrotation Yrotation Zrotation
				JOINT RightFoot
				{
					OFFSET 0.082453 -29.568058 -0.264600
					CHANNELS 3 Xrotation Yrotation Zrotation
					JOINT RightToeBase
					{
						OFFSET -3.115300 -8.682800 16.113400
						CHANNELS 3 Xrotation Yrotation Zrotation
						End Site
						{
							OFFSET 0.000000 18.567114 0.000000
						}
					}
				}
			}
			JOINT Right_ShortSleeve
			{
				OFFSET -0.265923 -10.480953 1.153800
				CHANNELS 3 Xrotation Yrotation Zrotation
				End Site
				{
					OFFSET -1.725766 19.823910 0.000000
				}
			}
		}
	}
	JOINT Spine
	{
		OFFSET 0.000000 13.368103 0.470500
		CHANNELS 3 Xrotation Yrotation Zrotation
		JOINT Spine1
		{
			OFFSET 0.147000 13.837402 0.538800
			CHANNELS 3 Xrotation Yrotation Zrotation
			JOINT Spine2
			{
				OFFSET 0.168000 16.242897 -1.435500
				CHANNELS 3 Xrotation Yrotation Zrotation
				JOINT Neck
				{
					OFFSET 0.217200 18.631500 -1.679100
					CHANNELS 3 Xrotation Yrotation Zrotation
					JOINT Head
					{
						OFFSET 0.000000 6.599396 1.385900
						CHANNELS 3 Xrotation Yrotation Zrotation
						JOINT Hat
						{
							OFFSET -0.532200 27.220596 -10.096100
							CHANNELS 3 Xrotation Yrotation Zrotation
							End Site
							{
								OFFSET 0.000000 22.029861 0.000000
							}
						}
						JOINT HairD
						{
							OFFSET -10.777400 17.437393 -1.325900
							CHANNELS 3 Xrotation Yrotation Zrotation
							JOINT HairD1
							{
								OFFSET -3.290299 -11.051193 1.062200
								CHANNELS 3 Xrotation Yrotation Zrotation
								End Site
								{
									OFFSET 0.000000 11.579437 0.000000
								}
							}
						}
						JOINT HairB
						{
							OFFSET -10.777400 17.437393 1.467900
							CHANNELS 3 Xrotation Yrotation Zrotation
							JOINT HairB1
							{
								OFFSET -1.561200 -12.956299 3.590200
								CHANNELS 3 Xrotation Yrotation Zrotation
								End Site
								{
									OFFSET 0.000000 13.534866 0.000000
								}
							}
						}
						JOINT HairA
						{
							OFFSET 9.713100 17.437393 1.467900
							CHANNELS 3 Xrotation Yrotation Zrotation
							JOINT HairA1
							{
								OFFSET 1.561200 -12.956299 3.590200
								CHANNELS 3 Xrotation Yrotation Zrotation
								End Site
								{
									OFFSET 0.000000 13.534866 0.000000
								}
							}
						}
						JOINT HairC
						{
							OFFSET 9.713100 17.437393 -1.325900
							CHANNELS 3 Xrotation Yrotation Zrotation
							JOINT HairC1
							{
								OFFSET 3.290300 -11.051193 1.062200
								CHANNELS 3 Xrotation Yrotation Zrotation
								End Site
								{
									OFFSET 0.000000 11.579437 0.000000
								}
							}
						}
					}
				}
				JOINT LeftShoulder
				{
					OFFSET 5.101800 15.108002 -2.763700
					CHANNELS 3 Xrotation Yrotation Zrotation
					JOINT LeftArm
					{
						OFFSET 9.825497 2.506317 -1.597400
						CHANNELS 3 Xrotation Yrotation Zrotation
						JOINT LeftForeArm
						{
							OFFSET 21.966244 0.000000 0.000000
							CHANNELS 3 Xrotation Yrotation Zrotation
							JOINT LeftHand
							{
								OFFSET 33.879036 0.000000 0.000000
								CHANNELS 3 Xrotation Yrotation Zrotation
								JOINT LeftHandThumb1
								{
									OFFSET 6.715286 -2.359680 3.363841
									CHANNELS 3 Xrotation Yrotation Zrotation
									JOINT LeftHandThumb2
									{
										OFFSET 2.507072 -1.447464 1.447461
										CHANNELS 3 Xrotation Yrotation Zrotation
										JOINT LeftHandThumb3
										{
											OFFSET 2.898338 -1.673355 1.673357
											CHANNELS 3 Xrotation Yrotation Zrotation
											End Site
											{
												OFFSET -0.295959 3.727692 -0.131651
											}
										}
									}
								}
								JOINT LeftHandIndex1
								{
									OFFSET 14.190811 -0.254547 3.840278
									CHANNELS 3 Xrotation Yrotation Zrotation
									JOINT LeftHandIndex2
									{
										OFFSET 3.551727 0.000000 -0.000000
										CHANNELS 3 Xrotation Yrotation Zrotation
										JOINT LeftHandIndex3
										{
											OFFSET 2.894196 0.000000 0.000000
											CHANNELS 3 Xrotation Yrotation Zrotation
											End Site
											{
												OFFSET -1.000603 2.690872 0.366626
											}
										}
									}
								}
								JOINT LeftHandMiddle1
								{
									OFFSET 13.776489 0.000000 0.000000
									CHANNELS 3 Xrotation Yrotation Zrotation
									JOINT LeftHandMiddle2
									{
										OFFSET 3.438232 0.000000 0.000000
										CHANNELS 3 Xrotation Yrotation Zrotation
										JOINT LeftHandMiddle3
										{
											OFFSET 3.691551 0.000000 0.000000
											CHANNELS 3 Xrotation Yrotation Zrotation
											End Site
											{
												OFFSET -1.082298 3.499527 0.457670
											}
										}
									}
								}
								JOINT LeftHandRing1
								{
									OFFSET 13.966164 -0.268127 -3.067488
									CHANNELS 3 Xrotation Yrotation Zrotation
									JOINT LeftHandRing2
									{
										OFFSET 3.162567 0.000000 0.000000
										CHANNELS 3 Xrotation Yrotation Zrotation
										JOINT LeftHandRing3
										{
											OFFSET 3.324348 0.000000 0.000000
											CHANNELS 3 Xrotation Yrotation Zrotation
											End Site
											{
												OFFSET -0.861900 3.184998 0.405154
											}
										}
									}
								}
								JOINT LeftHandPinky1
								{
									OFFSET 13.131393 -0.168503 -5.746925
									CHANNELS 3 Xrotation Yrotation Zrotation
									JOINT LeftHandPinky2
									{
										OFFSET 2.849182 0.000000 0.000000
										CHANNELS 3 Xrotation Yrotation Zrotation
										JOINT LeftHandPinky3
										{
											OFFSET 2.805038 0.000000 0.000000
											CHANNELS 3 Xrotation Yrotation Zrotation
											End Site
											{
												OFFSET -0.882500 2.642609 0.325652
											}
										}
									}
								}
							}
							JOINT Left_Sleeve
							{
								OFFSET 6.592125 -0.646545 0.805568
								CHANNELS 3 Xrotation Yrotation Zrotation
								End Site
								{
									OFFSET -0.000179 20.275787 -0.000000
								}
							}
						}
					}
				}
				JOINT RightShoulder
				{
					OFFSET -5.731700 15.108002 -2.763700
					CHANNELS 3 Xrotation Yrotation Zrotation
					JOINT RightArm
					{
						OFFSET -9.825497 2.506317 -1.597400
						CHANNELS 3 Xrotation Yrotation Zrotation
						JOINT RightForeArm
						{
							OFFSET -21.966242 0.000000 0.000000
							CHANNELS 3 Xrotation Yrotation Zrotation
							JOINT RightHand
							{
								OFFSET -33.879032 0.000000 0.000000
								CHANNELS 3 Xrotation Yrotation Zrotation
								JOINT RightHandThumb1
								{
									OFFSET -6.715286 -2.359680 3.363841
									CHANNELS 3 Xrotation Yrotation Zrotation
									JOINT RightHandThumb2
									{
										OFFSET -2.507072 -1.447464 1.447461
										CHANNELS 3 Xrotation Yrotation Zrotation
										JOINT RightHandThumb3
										{
											OFFSET -2.898338 -1.673355 1.673357
											CHANNELS 3 Xrotation Yrotation Zrotation
											End Site
											{
												OFFSET 0.295959 3.727692 -0.131651
											}
										}
									}
								}
								JOINT RightHandIndex1
								{
									OFFSET -14.190811 -0.254547 3.840278
									CHANNELS 3 Xrotation Yrotation Zrotation
									JOINT RightHandIndex2
									{
										OFFSET -3.551727 0.000000 -0.000000
										CHANNELS 3 Xrotation Yrotation Zrotation
										JOINT RightHandIndex3
										{
											OFFSET -2.894196 0.000000 0.000000
											CHANNELS 3 Xrotation Yrotation Zrotation
											End Site
											{
												OFFSET 1.000603 2.690872 0.366626
											}
										}
									}
								}
								JOINT RightHandMiddle1
								{
									OFFSET -13.776489 0.000000 0.000000
									CHANNELS 3 Xrotation Yrotation Zrotation
									JOINT RightHandMiddle2
									{
										OFFSET -3.438232 0.000000 0.000000
										CHANNELS 3 Xrotation Yrotation Zrotation
										JOINT RightHandMiddle3
										{
											OFFSET -3.691551 0.000000 0.000000
											CHANNELS 3 Xrotation Yrotation Zrotation
											End Site
											{
												OFFSET 1.082298 3.499527 0.457670
											}
										}
									}
								}
								JOINT RightHandRing1
								{
									OFFSET -13.966164 -0.268127 -3.067488
									CHANNELS 3 Xrotation Yrotation Zrotation
									JOINT RightHandRing2
									{
										OFFSET -3.162567 0.000000 0.000000
										CHANNELS 3 Xrotation Yrotation Zrotation
										JOINT RightHandRing3
										{
											OFFSET -3.324348 0.000000 0.000000
											CHANNELS 3 Xrotation Yrotation Zrotation
											End Site
											{
												OFFSET 0.861900 3.184998 0.405154
											}
										}
									}
								}
								JOINT RightHandPinky1
								{
									OFFSET -13.131393 -0.168503 -5.746925
									CHANNELS 3 Xrotation Yrotation Zrotation
									JOINT RightHandPinky2
									{
										OFFSET -2.849182 0.000000 0.000000
										CHANNELS 3 Xrotation Yrotation Zrotation
										JOINT RightHandPinky3
										{
											OFFSET -2.805038 0.000000 0.000000
											CHANNELS 3 Xrotation Yrotation Zrotation
											End Site
											{
												OFFSET 0.882500 2.642609 0.325652
											}
										}
									}
								}
							}
							JOINT Right_Sleeve
							{
								OFFSET -6.592125 -0.646545 0.805568
								CHANNELS 3 Xrotation Yrotation Zrotation
								End Site
								{
									OFFSET 0.000179 20.275787 -0.000000
								}
							}
						}
					}
				}
				JOINT Bind_Right_JacketString
				{
					OFFSET -3.534800 11.969597 7.200700
					CHANNELS 3 Xrotation Yrotation Zrotation
					JOINT Bind_Right_JacketString1
					{
						OFFSET -0.319900 -6.102600 2.794100
						CHANNELS 3 Xrotation Yrotation Zrotation
						End Site
						{
							OFFSET 0.000000 6.719452 0.000000
						}
					}
				}
				JOINT Bind_Left_JacketString
				{
					OFFSET 2.904800 11.969597 7.200700
					CHANNELS 3 Xrotation Yrotation Zrotation
					JOINT Bind_Left_JacketString1
					{
						OFFSET 0.364800 -5.904503 3.186800
						CHANNELS 3 Xrotation Yrotation Zrotation
						End Site
						{
							OFFSET 0.000000 6.719513 0.000000
						}
					}
				}
				JOINT HairE
				{
					OFFSET 5.915200 17.612701 -11.592200
					CHANNELS 3 Xrotation Yrotation Zrotation
					JOINT HairE1
					{
						OFFSET 0.289200 -7.171898 -1.284500
						CHANNELS 3 Xrotation Yrotation Zrotation
						End Site
						{
							OFFSET 0.000000 7.291756 0.000000
						}
					}
				}
				JOINT HairF
				{
					OFFSET -0.864800 17.612701 -11.592200
					CHANNELS 3 Xrotation Yrotation Zrotation
					JOINT HairF1
					{
						OFFSET 0.000000 -14.087097 -2.127501
						CHANNELS 3 Xrotation Yrotation Zrotation
						End Site
						{
							OFFSET 0.000000 14.246841 0.000000
						}
					}
				}
				JOINT HairG
				{
					OFFSET -8.087700 17.612701 -11.592200
					CHANNELS 3 Xrotation Yrotation Zrotation
					JOINT HairG1
					{
						OFFSET -0.293600 -6.081398 -0.910100
						CHANNELS 3 Xrotation Yrotation Zrotation
						End Site
						{
							OFFSET 0.000000 6.156120 0.000000
						}
					}
				}
			}
		}
	}
	JOINT Pouch
	{
		OFFSET 0.000000 4.394501 10.847300
		CHANNELS 3 Xrotation Yrotation Zrotation
		End Site
		{
			OFFSET 0.000000 21.880577 0.000000
		}
	}
	JOINT Bag
	{
		OFFSET -13.229000 4.813004 -0.593300
		CHANNELS 3 Xrotation Yrotation Zrotation
		End Site
		{
			OFFSET 0.000000 21.880577 0.000000
		}
	}
	JOINT OccupyGuyFacialAnim_Joint
	{
		OFFSET 1.000000 -70.206398 -1.655000
		CHANNELS 3 Xrotation Yrotation Zrotation
		End Site
		{
			OFFSET 0.000000 21.880577 0.000000
		}
	}
}
MOTION
Frames: 4
Frame Time: 0.033333
-0.124925 67.145126 0.122070 2.014470 -15.445894 1.380634 -0.000000 -0.000001 -0.000000 -37.888996 3.562730 9.210854 71.585806 3.612029 -6.235132 -7.973539 -4.542366 -4.985483 0.000000 0.000000 0.000000 0.000001 0.000000 -0.000000 -23.810437 2.359577 1.456868 43.212220 -1.363718 4.836862 -21.523688 -0.892016 -5.324622 -0.000000 0.000000 -0.000000 0.000002 0.000001 0.000000 3.556535 -0.669676 0.303413 7.121087 -1.285323 0.887693 7.121149 -1.285290 0.887681 13.673326 8.997953 -12.700207 -25.280564 6.502117 3.146748 0.000000 0.000000 -0.000000 0.000000 0.000000 -0.000000 0.000000 0.000000 -0.000000 0.000000 0.000000 -0.000000 0.000000 -0.000000 -0.000000 0.000000 0.000000 -0.000000 0.000000 -0.000000 -0.000000 0.000000 0.000000 -0.000000 0.000000 0.000000 -0.000000 -0.055325 -8.921898 -0.056289 -76.879387 -6.587477 -38.191218 44.919815 -70.567500 40.504996 -53.259312 18.417723 20.942174 17.551494 -5.699423 -12.932468 10.850620 26.127811 8.644628 -0.000000 -0.000001 0.000002 13.980629 1.201638 -55.004866 0.365539 1.181037 -65.441306 -0.000003 0.000001 -0.000002 7.504560 1.174673 -63.778817 1.804913 1.468538 -64.567957 0.000001 0.000002 0.000003 8.574174 2.179105 -75.149163 -0.221083 1.007112 -57.854830 -0.000003 0.000002 0.000001 10.030076 13.637279 -84.750312 0.876953 0.062255 -64.595619 -0.000000 0.000001 0.000003 0.000001 0.000002 -0.000003 0.033918 11.644649 20.120807 7.785003 -8.951327 49.540960 13.707893 21.289519 -5.464261 -28.039694 7.765018 5.861716 15.788107 -2.734148 -17.206206 -2.198290 -31.113561 7.361086 0.000000 -0.000003 0.000001 2.369262 -3.659235 8.488901 -2.155253 -2.473699 18.671270 -0.000002 0.000001 -0.000001 -1.964591 -5.707889 13.663996 0.275684 -5.112230 26.987706 0.000000 0.000000 0.000001 -3.268891 -8.562087 11.768159 4.034536 -4.063183 33.262844 0.000000 0.000001 -0.000006 -6.474511 -11.347763 23.260315 10.723075 -2.564086 34.824064 -0.000000 0.000000 -0.000003 0.000001 -0.000001 -0.000000 0.000002 -0.000001 -0.000000 0.000002 -0.000001 -0.000000 0.000002 -0.000001 0.000000 0.000002 -0.000001 0.000000 0.000002 -0.000001 -0.000000 0.000002 -0.000001 0.000000 0.000002 -0.000001 0.000000 0.000002 -0.000001 0.000000 0.000002 -0.000001 -0.000000 0.000002 -0.000001 0.000000 -0.000000 -0.000001 -0.000000 -0.000000 -0.000001 -0.000000 -0.000000 -0.000001 -0.000000 
-0.080732 66.833817 -2.388810 1.507260 -15.037215 0.785524 -0.000000 0.000001 -0.000000 -32.647409 4.838424 8.655652 72.767128 3.997404 -5.775981 -5.690927 -3.671859 -3.422089 -0.000000 0.000000 0.000000 -0.000001 -0.000000 0.000000 -26.269365 1.784368 2.456583 44.012264 -1.895123 4.842361 -19.422394 -0.885749 -5.823510 0.000000 -0.000002 0.000000 0.000002 0.000001 -0.000000 3.717763 -0.744801 0.840518 7.138547 -1.483387 1.063084 7.146362 -1.460802 1.081924 13.594810 9.110875 -12.932814 -25.085219 6.503552 3.587393 0.000000 -0.000000 0.000000 0.000000 -0.000000 0.000000 0.000000 -0.000000 0.000000 0.000000 -0.000000 0.000000 0.000000 -0.000000 0.000000 0.000000 -0.000000 0.000000 0.000000 -0.000000 0.000000 0.000000 -0.000000 0.000000 0.000000 -0.000000 0.000000 -0.163079 -8.990277 -0.054928 -76.269396 -6.312962 -38.047647 45.396374 -71.157416 41.100503 -53.204889 18.012413 21.008984 17.578805 -5.618798 -12.940400 10.798491 25.986361 8.637952 0.000001 0.000001 0.000001 13.885305 0.900989 -54.713527 0.362286 1.173791 -65.239426 -0.000001 0.000002 -0.000003 7.467903 1.287782 -62.987130 1.784727 1.492217 -63.802402 0.000004 0.000002 -0.000001 8.532231 2.338528 -74.085027 -0.227951 1.003118 -56.941829 0.000001 0.000000 0.000001 9.949143 13.618632 -84.687550 0.877006 0.061699 -64.633691 -0.000001 0.000001 -0.000002 0.000002 0.000002 -0.000000 0.000399 11.809635 19.965662 8.203168 -9.662547 49.626054 13.577214 20.097717 -5.322857 -26.072560 7.087581 4.379024 15.788109 -2.734150 -17.206206 -2.198287 -31.113564 7.361087 -0.000000 0.000000 -0.000003 2.371537 -3.658505 7.449660 -2.154638 -2.473227 17.631852 -0.000001 -0.000000 0.000000 -1.970233 -5.707421 12.624059 0.275124 -5.104708 25.948351 0.000001 0.000000 -0.000001 -3.263217 -8.561708 10.729584 4.035809 -4.062780 32.223494 -0.000002 -0.000001 -0.000004 -6.474703 -11.347326 22.220847 10.722804 -2.563697 33.784588 0.000002 0.000001 -0.000003 0.000001 0.000001 0.000000 0.000000 -0.000001 0.000000 0.000002 0.000001 -0.000000 0.000000 -0.000001 0.000000 0.000000 -0.000001 0.000000 0.000000 -0.000001 0.000000 0.000002 0.000001 -0.000000 0.000000 -0.000001 0.000000 0.000000 -0.000001 0.000000 0.000000 -0.000001 0.000000 0.000002 0.000001 -0.000000 -0.000000 0.000001 -0.000000 -0.000000 0.000001 -0.000000 -0.000000 0.000001 -0.000000 
0.043141 66.305214 -4.751171 1.084033 -14.759839 0.495865 0.000000 0.000000 -0.000000 -27.229362 6.104405 8.177739 74.598862 4.756806 -5.313165 -4.906155 -2.577966 -4.336324 -0.000001 -0.000000 0.000000 0.000002 -0.000000 -0.000000 -29.085650 1.295566 3.003835 45.541195 -2.175707 4.921070 -17.754841 -0.900316 -6.298926 -0.000000 -0.000002 -0.000000 -0.000002 0.000001 -0.000000 3.537271 -0.848377 1.274037 7.156068 -1.684259 1.095117 7.167967 -1.661476 1.132326 13.936062 9.218933 -13.336219 -24.949293 6.409233 4.292357 0.000001 -0.000000 0.000000 0.000001 -0.000000 0.000000 0.000001 -0.000000 0.000000 0.000001 -0.000000 -0.000000 0.000001 -0.000000 -0.000000 0.000001 -0.000000 -0.000000 0.000001 -0.000000 -0.000000 0.000001 -0.000000 0.000000 0.000001 -0.000000 0.000000 -0.270895 -9.081066 -0.050035 -75.923509 -6.249400 -37.836926 45.862985 -71.497143 41.656081 -53.207659 17.956946 21.045584 17.575649 -5.628069 -12.939479 10.813902 26.028150 8.639903 -0.000002 0.000001 -0.000000 14.128909 0.544057 -55.736608 0.378427 1.167191 -66.381024 -0.000000 0.000000 -0.000002 7.655059 1.081544 -63.934826 1.811967 1.460137 -64.837142 0.000003 0.000001 0.000003 8.572946 2.183932 -75.116945 -0.220615 1.007370 -57.914465 0.000001 0.000002 0.000002 10.351207 13.709813 -84.995776 0.878016 0.045387 -65.732545 -0.000001 -0.000005 -0.000005 -0.000004 0.000003 -0.000003 -0.035641 11.979002 19.816913 8.687412 -10.429332 49.725044 13.451198 18.785052 -5.190078 -23.946513 6.146227 2.819711 15.788110 -2.734152 -17.206204 -2.198283 -31.113564 7.361087 0.000000 0.000004 -0.000001 2.371399 -3.657986 6.269954 -2.153487 -2.472636 16.452201 -0.000001 0.000000 -0.000001 -1.976219 -5.706861 11.443749 0.274667 -5.099854 24.768720 0.000001 0.000000 -0.000002 -3.263270 -8.561182 9.549875 4.035397 -4.062314 31.043814 -0.000001 -0.000002 0.000001 -6.474939 -11.346833 21.041096 10.722501 -2.563259 32.604929 -0.000000 0.000001 0.000001 0.000002 0.000001 0.000002 -0.000000 0.000000 -0.000000 -0.000000 0.000000 0.000000 -0.000000 0.000000 0.000000 -0.000000 0.000000 0.000000 -0.000000 0.000000 -0.000000 -0.000000 0.000000 0.000000 -0.000000 0.000000 0.000000 -0.000000 0.000000 0.000000 -0.000000 0.000000 -0.000000 -0.000000 0.000000 0.000000 0.000000 0.000000 -0.000000 0.000000 0.000000 -0.000000 0.000000 0.000000 -0.000000 
0.245802 65.539276 -7.204031 0.686380 -14.413352 0.016961 -0.000000 -0.000001 -0.000000 -21.953194 7.019013 8.276495 75.895635 5.572466 -5.013764 -3.389896 -1.501864 -6.924487 0.000001 -0.000000 0.000000 0.000002 -0.000000 -0.000000 -32.296140 0.713603 3.637918 47.483205 -2.555400 5.015874 -16.130352 -0.938023 -6.694218 -0.000000 -0.000000 0.000000 0.000000 0.000001 -0.000000 3.199465 -0.954080 2.012655 7.146648 -1.865812 1.174338 7.158357 -1.844259 1.227005 14.416094 9.325098 -14.191495 -24.500158 6.140112 5.348313 0.000001 0.000000 0.000000 0.000001 0.000000 0.000000 0.000001 0.000000 -0.000000 0.000001 0.000000 -0.000000 0.000000 0.000000 0.000000 0.000001 0.000000 -0.000000 0.000000 0.000000 0.000000 0.000001 0.000000 0.000000 0.000001 0.000000 0.000000 -0.378813 -9.161809 -0.045402 -75.842530 -6.652823 -37.785679 44.208946 -71.307394 40.009308 -53.189873 17.803035 21.059229 17.554546 -5.690354 -12.933333 10.842241 26.105050 8.643575 -0.000003 -0.000000 0.000000 14.023251 0.347701 -55.379608 0.374177 1.168996 -66.081964 -0.000001 -0.000000 0.000002 7.746286 1.054768 -63.791897 1.810177 1.457017 -64.778436 0.000000 -0.000001 0.000002 8.581584 2.149605 -75.345429 -0.218371 1.002334 -58.209392 -0.000001 -0.000000 0.000004 10.476659 13.737715 -85.091098 0.878344 0.038902 -66.167963 -0.000001 -0.000002 0.000001 -0.000001 -0.000001 0.000002 -0.083307 12.149809 19.872956 9.180037 -11.482793 49.713617 13.305066 17.500813 -5.132297 -21.740811 5.026108 1.566649 15.788109 -2.734149 -17.206206 -2.198287 -31.113568 7.361084 -0.000001 0.000003 0.000002 2.371400 -3.657424 5.041675 -2.151756 -2.471997 15.224000 -0.000001 0.000000 0.000002 -1.976366 -5.706330 10.215520 0.274461 -5.099335 23.540392 0.000002 0.000001 -0.000001 -3.263356 -8.560642 8.321600 4.035295 -4.061808 29.815511 -0.000000 -0.000002 -0.000000 -6.475126 -11.346313 19.812827 10.722206 -2.562771 31.376636 -0.000001 0.000000 0.000001 -0.000000 0.000001 0.000001 -0.000001 0.000002 -0.000001 -0.000001 -0.000002 0.000001 -0.000001 0.000002 -0.000001 -0.000001 0.000002 -0.000001 -0.000001 0.000002 -0.000001 -0.000001 -0.000002 0.000001 -0.000001 0.000002 -0.000001 -0.000001 0.000002 -0.000001 -0.000001 0.000002 -0.000001 -0.000001 -0.000002 0.000001 -0.000000 -0.000001 -0.000000 -0.000000 -0.000001 -0.000000 -0.000000 -0.000001 -0.000000 
